<svg id="Layer_1" data-name="Layer 1" xmlns="http://www.w3.org/2000/svg" viewBox="0 0 101.11 210.26"><defs><style>.cls-1{fill:#040697;}.cls-2{fill:#0a1aad;}.cls-3{fill:#010897;}.cls-4{fill:none;stroke:#000;stroke-miterlimit:10;}</style></defs><path class="cls-1" d="M92.4,17.12s68.21,77.66,72.65,75.64,3.89.81,3.89-4.65S104.41,10.33,97,12.41s-4.64,5.11-4.64,5.11" transform="translate(-79.43 -12.36)"/><path class="cls-2" d="M79.43,103.88l.09,3.13c3.56-.26,9.14-.07,11.59,3.79a7.22,7.22,0,0,1,1,2.4c1.67,7.32.23,51.21,0,59.2l-.23,47,14.25.3.14-39.28a1.17,1.17,0,0,1,1.12-.15,1,1,0,0,1,.37.61c.17.7,6,9.55,20,30.37,4.69,5,8.69,8.11,10.48,9,1,.46,2,.81,2,.81a21.83,21.83,0,0,0,3.26.88,26.13,26.13,0,0,0,6.05.74,16.47,16.47,0,0,0,4.28-.59,16.15,16.15,0,0,0,2.8-1.08v-3.63a12.24,12.24,0,0,1-6.38-2.2,14.84,14.84,0,0,1-1.86-1.64,80.24,80.24,0,0,1-6.1-6.71c-2.68-3.27-4-4.91-5.45-6.81-6.59-8.72-15-22.21-16.11-23.92a2,2,0,0,1-.8-1.79,2.24,2.24,0,0,1,.84-1.38c1.12-1,4.52-5.35,10-12.92l9.88-13.36a17.64,17.64,0,0,1,5.31-2.56,32.82,32.82,0,0,1,4.19-.77c.83-.1,1.52-.16,2-.2,0-1.57-.09-3.14-.14-4.71l-10.66.2c-4.78,2.38-5.59,2.87-5.59,2.87a29.32,29.32,0,0,0-5.4,4.41,60.24,60.24,0,0,0-5.45,6.35c-2.79,3.52-4.18,5.29-5.82,7.57-5.15,7.2-7.72,10.8-8.7,12.86a8.14,8.14,0,0,1-1.77,2.46,7.12,7.12,0,0,1-1.91,1.23l.6-59.82a15.38,15.38,0,0,0-.6-4.66,12.57,12.57,0,0,0-1.91-4,12.13,12.13,0,0,0-4-3.17C97.46,103,89.58,102.4,79.43,103.88Z" transform="translate(-79.43 -12.36)"/><path class="cls-3" d="M150.72,100c-.78.89-.39,2.69,0,4a9.53,9.53,0,0,1,4.29-.16,12.73,12.73,0,0,1,3.16,1.18,9.93,9.93,0,0,1,4.47,3.89,12.18,12.18,0,0,1,2.38,6.51l.7,106.47,14.53-.21q.12-54.48.25-109a16.23,16.23,0,0,0-.63-3.33,12.72,12.72,0,0,0-2-4.19A10.56,10.56,0,0,0,174,102a12.34,12.34,0,0,0-4.1-1,32.19,32.19,0,0,0-4.56-.2c-4.46,0-6.69,0-8.06-.15C153.31,100.15,151.62,99,150.72,100Z" transform="translate(-79.43 -12.36)"/><path class="cls-4" d="M192,127.7" transform="translate(-79.43 -12.36)"/></svg>